<svg width="320" height="437" viewBox="0 0 320 437" fill="none" xmlns="http://www.w3.org/2000/svg">
<rect width="320" height="437" fill="#0066FF"/>
<mask id="mask0_304_7" style="mask-type:alpha" maskUnits="userSpaceOnUse" x="208" y="0" width="112" height="147">
<rect x="208.836" width="111.164" height="147" fill="#C4C4C4"/>
</mask>
<g mask="url(#mask0_304_7)">
<path d="M233.824 -19.9902L226.388 17.7958L240.406 33.6416L242.722 43.5147L256.129 59.2386L275.388 76.1814L290.625 81.9103L297.572 95.9277L305.251 113.114L315.978 122.622L337.552 130.179" stroke="#C1EDCC" stroke-width="5.1194"/>
<path d="M221.634 -18.6489L214.442 21.5726L228.337 37.264V47.2824L243.44 64.9051L263.013 79.3895L277.582 89.9556L280.507 98.9434H287.942L303.246 125.377L324.631 132.861" stroke="black" stroke-width="5.1194"/>
<path d="M244.466 -21.4526L237.846 12.1622L250.326 26.2588V35.2589L263.892 51.0905L281.473 64.1027L295.039 69.1991L301.225 81.6692L308.062 96.9585L317.612 105.416L336.821 112.139" stroke="#F5BEAE" stroke-width="5.1194"/>
</g>
</svg>
