<?xml version="1.0" standalone="no"?>
<!DOCTYPE svg PUBLIC "-//W3C//DTD SVG 20010904//EN"
 "http://www.w3.org/TR/2001/REC-SVG-20010904/DTD/svg10.dtd">
<svg version="1.0" xmlns="http://www.w3.org/2000/svg"
 width="1854.000000pt" height="3533.000000pt" viewBox="0 0 1854.000000 3533.000000"
 preserveAspectRatio="xMidYMid meet">

<g transform="translate(0.000000,3533.000000) scale(0.100000,-0.100000)"
fill="#000000" stroke="none">
<path d="M5804 33979 c-41 -15 -54 -47 -54 -139 -1 -130 -11 -165 -61 -217
-63 -64 -105 -82 -223 -96 -61 -8 -114 -20 -129 -30 -29 -19 -132 -168 -232
-337 -37 -63 -81 -134 -97 -158 -85 -124 -95 -199 -39 -278 41 -56 81 -142 81
-174 0 -14 -22 -88 -49 -165 -54 -155 -82 -299 -102 -520 -6 -77 -16 -150 -20
-162 -6 -16 -48 -42 -146 -89 -595 -288 -602 -292 -865 -506 -111 -91 -122
-112 -116 -217 3 -58 10 -77 47 -141 25 -41 66 -104 92 -140 27 -36 55 -81 63
-101 14 -34 14 -36 -21 -80 -75 -93 -103 -197 -83 -308 6 -34 36 -139 66 -234
73 -227 97 -331 90 -382 -4 -22 -30 -89 -59 -150 -47 -98 -52 -117 -51 -175 0
-56 6 -77 43 -150 24 -47 70 -129 103 -183 66 -107 78 -153 55 -208 -18 -43
-52 -55 -219 -75 -65 -7 -127 -18 -138 -24 -40 -21 -122 -189 -201 -412 -22
-62 -91 -212 -153 -333 -230 -445 -355 -701 -368 -747 -10 -40 -10 -56 2 -95
38 -124 2 -247 -132 -460 -44 -70 -87 -147 -95 -171 -19 -55 -12 -76 95 -267
132 -239 142 -267 167 -483 25 -213 31 -194 -78 -246 -148 -71 -203 -138 -247
-302 -15 -57 -21 -108 -21 -181 l0 -102 -44 -59 c-59 -79 -70 -131 -59 -282 4
-63 8 -171 9 -240 0 -103 3 -132 20 -165 18 -38 150 -177 210 -221 l29 -21
-46 -49 c-85 -92 -86 -118 -9 -232 41 -60 53 -89 71 -170 37 -165 39 -170 101
-224 40 -36 60 -62 69 -91 17 -56 15 -164 -4 -227 -23 -77 -20 -99 21 -181 40
-77 77 -109 126 -109 16 0 41 -7 55 -16 l27 -15 -1 -382 c0 -272 -4 -390 -12
-411 -7 -15 -28 -47 -47 -69 -40 -46 -49 -74 -71 -207 -20 -127 -25 -142 -104
-310 -76 -162 -90 -204 -90 -271 0 -37 -6 -54 -31 -85 -76 -96 -78 -135 -10
-207 27 -29 63 -81 81 -117 37 -73 80 -194 80 -223 0 -11 -18 -60 -40 -108
-39 -84 -41 -92 -41 -189 0 -98 0 -100 -27 -117 -79 -48 -94 -61 -111 -98 -11
-22 -22 -56 -26 -75 -4 -19 -15 -43 -24 -53 -21 -24 -138 -92 -173 -101 -34
-8 -86 -74 -103 -130 -16 -54 -21 -978 -5 -1099 13 -105 31 -140 116 -222 l72
-70 7 -70 c9 -88 43 -208 90 -314 20 -45 39 -104 42 -130 l6 -49 -146 -152
c-80 -83 -155 -170 -166 -193 -21 -43 -41 -186 -60 -424 -5 -67 -15 -132 -21
-143 -6 -12 -31 -30 -55 -40 -62 -27 -75 -50 -75 -140 0 -69 3 -81 35 -130 66
-105 65 -90 5 -206 l-53 -104 17 -100 c19 -110 16 -220 -10 -402 -21 -149 -19
-173 28 -284 l41 -99 7 -225 c8 -251 5 -239 95 -417 31 -62 59 -131 62 -153 6
-39 4 -41 -77 -117 -46 -43 -105 -111 -131 -151 -60 -91 -73 -147 -59 -256 5
-44 14 -124 20 -176 6 -52 18 -119 27 -148 16 -49 16 -59 1 -127 -19 -92 -13
-107 62 -149 49 -27 67 -32 155 -36 l100 -5 -3 -35 c-3 -28 -15 -45 -59 -85
-45 -41 -55 -57 -60 -90 -4 -33 0 -47 26 -83 17 -23 54 -58 81 -78 27 -19 52
-43 55 -53 3 -10 -6 -42 -20 -72 -43 -93 -33 -134 47 -193 21 -15 38 -33 38
-40 0 -7 -11 -30 -25 -50 -14 -20 -25 -49 -25 -64 0 -15 -14 -56 -30 -90 -35
-74 -38 -118 -11 -170 45 -87 91 -102 323 -102 l149 0 -6 -62 c-9 -88 -21
-120 -55 -153 -35 -33 -96 -46 -186 -38 -110 10 -286 -50 -321 -108 -20 -33
-11 -73 22 -95 14 -9 71 -33 128 -54 128 -46 178 -72 226 -115 38 -35 81 -111
99 -177 10 -36 10 -37 -49 -88 -67 -59 -99 -113 -131 -227 -29 -104 -27 -188
10 -403 53 -307 66 -454 52 -581 -6 -61 -23 -149 -36 -197 -57 -203 -58 -216
-39 -338 10 -61 15 -122 12 -136 -4 -14 -36 -61 -72 -104 -75 -90 -116 -157
-138 -229 -16 -50 -50 -257 -50 -305 0 -51 34 -189 68 -273 47 -117 48 -174 3
-216 -18 -17 -36 -31 -40 -31 -4 0 -17 -18 -28 -40 -17 -33 -20 -58 -20 -172
0 -156 6 -142 -121 -274 -75 -78 -90 -101 -104 -149 -22 -76 -58 -113 -197
-206 -133 -90 -137 -96 -119 -209 6 -36 18 -146 27 -245 17 -195 41 -338 75
-447 18 -57 34 -83 85 -139 59 -64 65 -75 98 -181 19 -62 42 -138 51 -169 21
-77 50 -102 123 -107 l57 -4 90 67 c104 78 205 130 238 121 55 -13 58 -22 67
-176 4 -80 15 -176 23 -215 22 -100 47 -287 47 -348 0 -29 -9 -70 -19 -92 -33
-74 -34 -93 -6 -150 36 -74 108 -139 180 -161 51 -16 65 -27 104 -77 76 -98
130 -118 273 -98 160 22 614 51 798 51 285 -1 419 -13 520 -48 121 -42 293
-113 396 -165 49 -24 128 -57 176 -73 73 -23 91 -26 112 -16 19 8 26 19 26 39
0 36 -23 70 -96 141 -47 45 -78 92 -153 229 -54 97 -133 224 -183 290 -85 112
-88 119 -83 158 4 22 7 112 8 200 2 172 0 184 -64 350 -25 64 -30 90 -26 127
10 80 161 424 223 505 17 22 77 58 206 124 156 79 191 101 242 154 85 85 125
157 137 242 5 37 13 187 19 333 10 285 25 392 65 471 32 62 101 145 250 298
94 97 145 140 235 199 183 119 221 153 324 291 68 93 121 151 195 215 56 49
106 97 111 107 19 35 10 76 -30 138 -22 34 -40 69 -40 79 0 48 53 219 95 305
47 95 48 99 35 140 -15 53 -144 187 -208 219 -42 20 -65 22 -311 27 -342 8
-321 -3 -504 271 -82 124 -115 165 -170 209 -81 66 -104 100 -129 189 -21 76
-25 290 -7 355 10 36 407 640 436 664 8 6 44 16 80 23 83 14 93 19 232 124
138 104 207 134 266 116 122 -36 212 -36 257 -1 21 18 23 26 20 99 -2 62 6
122 34 259 20 98 41 181 47 185 5 3 35 9 66 13 74 9 106 27 120 66 16 48 14
79 -21 254 -53 272 -43 420 42 600 89 190 253 313 495 370 63 15 118 34 129
45 33 32 14 65 -67 117 -99 65 -247 138 -308 154 -49 13 -50 14 -45 42 3 16 6
41 6 54 0 15 14 39 34 59 l34 34 105 0 c58 0 108 -4 111 -9 3 -4 13 -55 23
-112 24 -147 27 -149 185 -149 l123 0 90 45 c50 25 95 45 102 45 6 0 23 14 38
32 l26 31 -3 291 c-4 320 -5 324 -71 394 -47 49 -78 42 -158 -35 -38 -36 -59
-48 -120 -63 -41 -11 -93 -20 -116 -20 -53 0 -91 -17 -99 -44 -5 -16 1 -26 26
-46 67 -51 113 -97 107 -107 -4 -6 -28 -14 -54 -17 -27 -4 -64 -9 -84 -12 -35
-5 -37 -4 -56 43 -11 26 -26 65 -33 85 -16 51 -48 73 -127 88 -88 16 -127 37
-188 100 l-50 51 0 172 c0 95 2 226 4 293 l3 120 -40 75 c-33 61 -41 87 -46
149 -3 42 -12 95 -21 119 -8 24 -15 63 -15 88 0 40 3 45 33 58 50 21 204 47
229 39 13 -4 45 -24 73 -44 72 -54 116 -74 298 -137 89 -30 205 -75 257 -99
125 -57 193 -74 320 -80 l105 -6 80 40 c44 21 124 67 178 101 110 70 143 83
269 111 171 39 253 85 289 164 37 82 17 173 -59 265 -62 75 -72 94 -72 140 0
80 21 175 52 231 23 41 33 75 39 135 5 44 19 113 31 154 24 78 45 106 127 165
62 44 81 85 81 174 0 90 -12 115 -86 179 -47 39 -65 64 -100 138 -55 117 -114
277 -114 310 0 24 2 25 65 25 88 0 124 -17 210 -101 l74 -71 128 -34 c249 -66
258 -67 528 -68 319 -1 409 13 1100 167 160 36 328 73 375 82 186 37 435 132
820 314 118 56 227 113 243 129 39 36 59 78 96 197 29 96 102 234 128 242 6 2
14 -5 18 -16 7 -24 38 -36 61 -23 9 5 40 60 70 122 46 98 62 122 113 167 65
59 128 147 186 263 20 40 70 122 110 181 41 59 78 125 84 146 20 69 4 540 -19
583 -17 33 -53 34 -141 6 -77 -25 -83 -26 -106 -10 -15 9 -41 51 -63 97 -42
92 -63 115 -123 137 -40 15 -42 18 -45 60 -4 54 13 156 37 226 10 28 50 98 88
155 39 57 75 114 82 126 20 39 13 87 -20 133 -18 24 -47 70 -66 102 -25 43
-54 74 -106 112 -88 66 -174 142 -292 259 -119 118 -188 148 -271 117 -21 -8
-32 -7 -51 5 -33 22 -40 45 -58 189 l-15 124 40 83 c62 128 52 219 -29 292
-31 27 -31 28 -31 130 0 56 12 214 27 351 26 243 27 248 52 264 132 79 159
102 185 153 22 45 26 66 26 144 0 50 7 147 16 215 26 205 22 338 -15 529 -17
90 -28 174 -25 185 4 12 43 58 88 104 l81 83 6 192 c8 228 22 283 126 490 70
140 83 198 83 372 l0 81 46 44 c83 81 286 360 349 479 38 72 42 76 154 149
126 81 223 172 360 337 226 271 497 569 686 754 240 235 312 307 445 447 85
90 117 114 300 231 113 72 245 152 294 177 48 26 134 75 190 110 135 84 157
95 224 107 72 14 132 46 211 115 45 39 70 54 91 54 73 0 236 96 294 173 38 50
56 129 56 242 0 117 17 194 59 262 37 61 80 199 88 279 7 71 -5 112 -53 194
-38 63 -57 139 -74 300 -6 57 -17 118 -24 135 -34 80 -118 137 -221 150 -53 6
-110 -6 -201 -43 -46 -18 -53 -19 -80 -5 -16 8 -46 37 -67 65 -47 61 -96 85
-139 67 -58 -24 -92 -138 -103 -339 -11 -219 -37 -423 -57 -463 -10 -21 -51
-73 -90 -115 -103 -111 -141 -162 -189 -252 -48 -90 -65 -104 -253 -206 -161
-87 -268 -198 -352 -366 -24 -48 -48 -88 -52 -88 -5 0 -19 12 -33 26 -49 53
-170 94 -284 96 -55 1 -70 -3 -105 -27 -45 -31 -77 -71 -109 -132 -21 -43 -28
-47 -66 -43 -22 2 -116 52 -155 82 -65 51 -79 53 -355 53 l-260 0 -130 57
c-71 31 -155 63 -185 72 -124 35 -297 54 -646 69 -44 2 -86 7 -93 11 -23 14
25 68 146 166 122 98 174 161 193 230 6 22 17 109 25 193 16 163 24 196 73
293 l30 59 75 22 c63 19 81 29 111 65 34 39 46 68 75 184 13 49 62 123 155
235 83 99 99 135 99 219 0 62 -4 74 -96 258 -52 107 -105 205 -118 218 -29 31
-66 42 -179 53 -144 14 -267 69 -370 165 -35 33 -58 45 -91 51 -74 11 -169 45
-271 97 -203 104 -624 405 -796 572 -59 56 -118 108 -131 115 -13 7 -74 26
-135 43 -256 68 -673 204 -767 252 -37 18 -68 41 -76 56 -7 14 -27 56 -44 94
-40 89 -90 142 -209 224 -438 303 -537 381 -632 501 -74 92 -112 167 -142 279
-41 153 -41 153 -196 193 -152 39 -159 44 -285 214 -106 143 -142 181 -190
199 -38 15 -270 35 -535 47 -296 13 -351 8 -414 -39 -79 -60 -169 -214 -199
-345 -10 -42 -21 -58 -73 -104 -65 -57 -63 -52 -105 -213 l-11 -45 -49 167
c-71 245 -117 321 -222 372 -63 30 -205 56 -307 56 -153 -1 -423 -28 -494 -50
-50 -16 -75 -19 -90 -12 -12 5 -74 60 -138 121 -118 111 -162 144 -313 231
-99 57 -105 59 -131 49z m155 -171 c74 -45 139 -96 228 -180 69 -64 145 -127
170 -139 l45 -22 86 27 c48 15 113 30 145 33 l57 6 0 -171 c0 -93 5 -216 11
-273 18 -183 88 -341 176 -402 42 -29 84 -96 121 -194 39 -103 162 -247 237
-279 22 -9 70 -14 133 -14 142 0 155 -4 229 -73 99 -93 97 -87 98 -342 0 -279
-1 -284 -121 -387 -104 -88 -204 -159 -215 -152 -5 3 -9 14 -9 25 0 52 -49 99
-104 99 -49 0 -125 -31 -168 -70 l-45 -39 -77 39 c-88 46 -112 48 -220 20
-101 -25 -120 -18 -229 92 -72 73 -85 92 -110 159 -38 107 -61 136 -157 200
-131 87 -125 76 -144 276 -16 180 -26 223 -69 296 -47 80 -102 91 -253 51 -69
-18 -100 -44 -114 -95 -12 -43 1 -95 104 -430 36 -119 66 -227 66 -239 0 -13
-22 -45 -54 -78 l-54 -56 -48 19 c-80 29 -226 119 -454 278 -118 82 -217 151
-219 153 -2 2 6 63 19 136 14 88 40 188 76 294 30 88 54 169 54 180 -1 29 -53
145 -93 206 -34 51 -36 58 -26 89 7 19 35 70 64 114 29 44 65 103 80 130 72
129 208 325 229 329 11 2 57 9 102 14 103 12 174 45 240 109 71 71 86 109 92
225 3 54 7 98 11 98 3 0 53 -28 110 -62z m2754 -132 c86 -9 147 -20 162 -30
13 -8 63 -70 111 -138 142 -197 156 -209 299 -253 l70 -22 6 -89 c8 -111 33
-1657 28 -1701 -3 -25 -115 -178 -454 -624 l-450 -590 -90 5 c-49 4 -151 13
-225 22 -142 17 -221 14 -345 -12 -115 -24 -157 -83 -171 -239 -8 -95 -38
-203 -76 -278 -17 -34 -34 -78 -37 -97 l-6 -35 -95 -3 c-186 -6 -384 38 -570
125 -52 24 -115 47 -140 50 -69 8 -143 -26 -281 -128 -81 -60 -130 -89 -148
-89 -55 1 -114 21 -142 50 -57 56 -169 66 -272 25 -77 -32 -165 -55 -206 -55
-37 0 -48 20 -100 184 -50 155 -46 169 76 320 82 100 133 205 133 273 0 60
-25 88 -115 130 l-60 28 -735 6 c-404 4 -757 10 -785 14 -45 7 -52 11 -67 44
-10 20 -44 73 -77 118 -98 137 -127 214 -103 275 7 17 207 179 324 262 37 26
170 97 295 157 334 161 445 218 470 238 29 24 43 61 44 119 1 26 4 59 8 73 6
26 7 26 141 -69 224 -158 310 -214 415 -268 165 -86 204 -85 292 6 31 33 63
70 70 82 24 44 14 111 -43 299 -31 101 -69 227 -85 279 -29 96 -36 145 -21
154 5 3 42 12 82 20 83 18 90 15 121 -45 21 -42 34 -117 49 -291 6 -65 14
-128 19 -140 12 -33 95 -107 169 -152 65 -39 92 -77 122 -171 18 -56 69 -122
153 -201 116 -108 162 -121 295 -83 l74 21 82 -41 c46 -23 93 -41 105 -41 28
0 71 22 96 50 27 30 68 50 103 50 28 0 30 -3 36 -49 11 -86 66 -106 151 -56
61 35 187 132 261 199 76 69 100 122 116 254 9 76 9 139 0 262 -14 187 -22
210 -115 301 -91 90 -112 100 -234 110 -60 4 -126 8 -148 8 -35 1 -46 8 -101
65 -35 37 -74 90 -89 123 -93 198 -98 208 -167 272 -80 76 -119 156 -138 286
-13 83 -20 478 -9 489 15 15 285 10 359 -7 159 -36 189 -83 290 -452 40 -143
78 -265 86 -271 7 -6 18 -22 23 -35 9 -23 10 -23 10 -2 1 12 8 26 17 31 9 5
22 37 30 73 70 314 74 327 107 352 65 50 95 89 108 140 30 125 90 239 161 303
l41 37 276 -6 c152 -4 338 -13 414 -21z m812 -723 c39 -78 124 -191 196 -259
80 -76 202 -168 427 -323 123 -85 238 -172 257 -194 18 -21 46 -69 61 -105 51
-122 77 -146 232 -208 126 -51 562 -187 782 -244 34 -9 59 -27 110 -79 127
-131 297 -263 589 -459 215 -144 370 -223 496 -254 77 -19 97 -28 139 -65 104
-92 259 -158 399 -169 45 -4 91 -10 103 -15 14 -5 49 -65 112 -193 121 -243
121 -258 12 -388 -87 -104 -158 -212 -170 -261 -23 -96 -41 -145 -59 -161 -10
-9 -48 -25 -85 -35 -37 -10 -76 -27 -87 -37 -32 -28 -97 -166 -113 -237 -8
-34 -17 -98 -21 -142 -3 -44 -8 -101 -11 -128 l-6 -47 -45 50 c-25 28 -127
112 -227 187 -99 76 -228 178 -286 228 -156 135 -152 132 -228 140 -111 11
-125 21 -294 225 -85 102 -161 190 -169 197 -8 6 -57 26 -109 44 -52 17 -105
38 -117 46 -13 8 -56 90 -110 205 -48 105 -100 204 -115 219 -32 32 -205 157
-543 394 -240 168 -405 290 -502 373 -38 32 -54 53 -59 78 -9 50 -54 105 -116
141 -29 18 -150 72 -268 121 l-215 87 -6 315 c-18 937 -19 1127 -4 1075 8 -27
30 -82 50 -122z m145 -1444 c275 -112 306 -132 329 -211 16 -54 25 -63 141
-157 124 -101 208 -162 485 -356 127 -88 292 -206 367 -260 l137 -100 82 -177
c45 -98 93 -193 106 -213 27 -40 85 -72 192 -106 l73 -24 164 -196 c182 -219
199 -232 327 -245 l67 -7 107 -94 c60 -52 186 -153 282 -225 96 -72 194 -149
219 -171 43 -40 82 -102 82 -131 0 -8 -53 -57 -118 -109 -117 -94 -182 -169
-182 -210 0 -11 -17 -35 -39 -53 -48 -41 -61 -88 -61 -216 0 -65 -9 -139 -32
-248 -17 -85 -32 -156 -33 -158 -2 -3 -2168 76 -2272 84 l-83 6 0 1112 c0 911
-2 1115 -13 1130 -13 18 -56 20 -702 32 -379 8 -690 16 -693 18 -2 2 196 264
439 583 l443 578 1 97 c0 54 3 98 6 98 3 0 84 -32 179 -71z m-4101 -1100 c65
-11 125 -40 129 -62 6 -32 -54 -142 -126 -230 -96 -118 -116 -158 -116 -227 1
-99 96 -368 140 -397 44 -28 140 -19 274 27 124 42 152 46 194 30 26 -9 26
-10 26 -129 0 -66 5 -132 11 -148 6 -15 42 -60 80 -99 l69 -72 0 -60 c0 -52 6
-73 40 -137 22 -42 40 -84 40 -93 0 -30 -57 -140 -122 -233 -73 -108 -80 -69
65 -374 87 -184 106 -216 152 -261 62 -60 144 -104 194 -104 27 0 65 18 146
66 64 39 122 67 140 68 l30 1 5 -420 c4 -314 9 -428 18 -450 8 -16 42 -88 78
-160 74 -150 89 -215 99 -435 3 -74 10 -156 15 -182 8 -41 6 -56 -18 -116 -49
-118 -226 -351 -250 -327 -30 29 -366 669 -481 915 -19 40 -200 206 -316 289
-71 50 -85 66 -121 134 -50 91 -161 244 -210 286 -48 43 -103 69 -191 92 -133
34 -200 23 -305 -49 -117 -80 -170 -89 -382 -68 -187 20 -195 24 -210 117 -4
21 -13 42 -21 49 -7 6 -58 22 -112 35 -55 14 -135 43 -183 67 -90 46 -122 79
-205 209 -22 35 -52 71 -66 82 -41 30 -108 24 -234 -21 -102 -37 -250 -70
-261 -59 -11 11 176 480 197 492 4 3 65 12 136 20 163 19 226 47 261 115 44
87 22 194 -66 323 -16 23 -51 85 -77 137 -63 125 -63 145 4 281 85 172 83 211
-25 556 -95 301 -97 363 -10 480 l42 58 735 -3 c404 -2 758 -7 788 -13z m2716
-259 c149 -16 343 -23 895 -35 388 -8 713 -15 722 -15 17 0 18 -63 18 -1094
l0 -1094 -165 -839 c-91 -462 -165 -843 -165 -847 0 -3 -215 -6 -479 -6 l-478
0 -69 45 c-80 53 -106 61 -234 70 -142 9 -171 19 -273 89 -161 111 -161 111
-307 97 -209 -19 -289 -42 -403 -112 -55 -33 -102 -57 -105 -54 -4 3 -9 70
-13 149 -12 246 -34 342 -109 484 -92 171 -90 159 -90 586 l0 374 25 16 c33
22 64 55 82 89 13 25 13 51 2 198 l-12 169 32 63 c18 35 50 86 71 115 75 98
128 241 136 362 8 115 7 114 81 158 82 49 139 103 164 157 15 33 19 66 19 194
l0 155 34 66 c41 79 73 197 85 316 11 113 27 135 107 150 90 18 220 16 429 -6z
m7983 -277 c18 -18 52 -38 75 -44 37 -10 51 -8 134 20 106 36 168 39 223 11
61 -31 70 -54 91 -218 22 -171 38 -226 85 -304 19 -31 37 -69 40 -85 10 -50
-33 -201 -88 -310 l-51 -102 -7 -153 c-5 -114 -11 -163 -24 -190 -26 -55 -167
-158 -216 -158 -53 0 -102 -23 -162 -76 -77 -67 -115 -88 -193 -104 -70 -14
-108 -32 -232 -111 -51 -33 -145 -87 -210 -122 -137 -74 -420 -255 -511 -327
-34 -28 -64 -50 -67 -50 -2 0 -14 24 -28 53 -13 29 -54 96 -90 149 -84 124
-97 167 -97 327 l0 125 28 -26 c57 -54 114 -64 149 -25 11 12 44 68 73 125 74
146 174 251 308 323 214 115 242 140 310 275 19 37 74 108 138 180 64 71 116
139 130 169 24 55 49 241 59 445 7 124 22 240 37 280 l10 25 26 -35 c15 -19
42 -50 60 -67z m-9421 -248 c176 -84 415 -135 628 -135 l52 0 6 -71 c9 -111
-14 -149 -143 -227 -98 -59 -119 -100 -120 -228 0 -92 -50 -227 -113 -307 -16
-21 -50 -78 -75 -125 l-44 -87 6 -158 c4 -87 9 -164 12 -172 3 -7 -8 -28 -24
-46 -28 -31 -30 -32 -53 -16 -33 23 -101 21 -152 -4 -23 -12 -80 -44 -125 -72
l-84 -51 -52 27 c-29 15 -66 42 -83 60 -17 18 -76 128 -131 245 l-101 212 55
85 c72 111 107 188 112 251 4 45 -1 60 -37 126 -33 60 -41 85 -41 126 0 73
-13 98 -91 178 l-69 72 0 80 0 81 83 -6 c97 -7 93 -8 223 88 194 144 208 147
361 74z m5772 -1225 c19 -5 138 -14 264 -20 328 -14 432 -35 651 -130 145 -63
190 -71 302 -60 114 12 243 12 315 1 40 -7 78 -24 135 -60 169 -109 257 -104
318 18 14 26 39 61 57 79 28 27 40 32 78 31 25 -1 60 -4 76 -8 l30 -6 6 -175
c3 -96 11 -191 17 -210 12 -37 47 -96 123 -208 25 -37 57 -95 72 -129 l26 -62
-303 -298 c-283 -279 -476 -489 -839 -916 -114 -134 -193 -204 -318 -280 -90
-56 -104 -71 -154 -162 -50 -94 -236 -352 -310 -433 l-61 -65 -34 18 c-90 46
-139 88 -204 175 -70 94 -145 162 -206 187 -25 11 -76 15 -200 15 -141 -1
-180 -4 -270 -26 -95 -23 -250 -49 -433 -73 l-67 -9 -11 35 c-5 20 -12 59 -15
86 -6 48 -4 52 40 103 25 30 49 66 53 80 15 53 6 139 -25 246 -18 60 -32 121
-32 137 0 68 131 265 282 425 111 116 198 243 268 389 67 140 68 149 26 242
-47 105 -51 125 -32 161 8 16 58 84 111 151 l95 122 25 137 c14 75 28 144 31
152 4 8 10 81 13 162 6 123 10 151 26 168 21 23 27 24 74 10z m-8577 -447 c8
-10 36 -53 62 -95 26 -42 68 -96 94 -118 75 -66 212 -126 353 -154 21 -5 28
-13 32 -42 8 -47 47 -97 93 -119 39 -18 253 -45 365 -45 89 0 144 18 253 84
51 31 105 58 121 62 42 8 162 -19 224 -50 57 -29 151 -139 212 -247 70 -124
94 -154 169 -207 117 -84 310 -260 310 -283 0 -24 206 -429 363 -714 l116
-210 -43 -45 c-24 -25 -49 -55 -55 -67 -6 -12 -11 -68 -11 -125 0 -57 -3 -112
-6 -123 -3 -11 -44 -45 -91 -75 -47 -30 -95 -68 -106 -84 -27 -38 -25 -79 8
-251 24 -121 47 -384 71 -814 6 -118 6 -123 -12 -118 -99 28 -294 38 -501 27
-132 -7 -209 -7 -232 0 -79 23 -292 215 -336 304 -33 66 -32 104 9 255 49 180
56 226 45 296 -21 133 -100 245 -239 338 -187 125 -450 347 -661 558 -147 146
-237 216 -345 267 -57 26 -64 27 -239 27 -99 0 -201 -4 -226 -8 l-46 -8 28
102 c26 92 29 118 29 255 0 163 -11 272 -37 369 -14 51 -26 69 -78 120 -90 89
-235 189 -366 253 l-117 56 130 261 c72 143 131 261 133 263 1 1 56 12 121 23
66 11 169 37 229 59 124 43 156 48 177 23z m7168 -163 c591 -22 1081 -41 1087
-43 7 -1 -16 -40 -53 -87 -119 -154 -127 -192 -69 -325 19 -44 35 -88 35 -97
0 -23 -94 -205 -154 -297 -26 -40 -93 -122 -150 -181 -103 -108 -227 -279
-272 -375 -32 -69 -31 -136 6 -265 17 -58 30 -126 30 -152 0 -41 -6 -53 -45
-99 -25 -30 -48 -67 -51 -87 -9 -49 2 -137 26 -207 15 -41 22 -88 23 -150 l2
-90 -69 -119 c-108 -184 -316 -492 -400 -591 -69 -81 -83 -93 -221 -187 -183
-125 -233 -184 -254 -295 -16 -80 -31 -318 -34 -504 l-2 -175 -41 42 c-80 82
-195 84 -277 6 -39 -37 -57 -84 -56 -146 0 -43 13 -77 82 -216 79 -158 83
-165 112 -165 33 0 31 -4 135 215 47 99 55 111 58 85 8 -78 35 -204 53 -244
10 -23 53 -78 95 -121 80 -82 128 -165 113 -192 -5 -8 -15 -55 -24 -104 -28
-162 -34 -167 -181 -139 -113 21 -252 17 -302 -9 -34 -18 -106 -105 -385 -468
-148 -191 -172 -218 -205 -228 -22 -6 -181 -10 -401 -10 -331 0 -363 1 -357
16 5 14 242 414 697 1178 66 109 119 206 119 214 0 9 -56 158 -124 331 -210
533 -271 773 -237 932 7 31 66 163 141 314 123 248 180 386 180 437 0 14 -25
54 -63 100 -82 98 -125 166 -144 225 -23 76 -18 268 12 468 21 141 335 1771
351 1828 7 23 -43 24 1214 -23z m-7785 -657 c173 -105 287 -209 304 -277 17
-69 31 -219 31 -346 0 -98 -4 -130 -30 -220 -36 -125 -38 -179 -10 -205 21
-19 41 -18 185 5 44 7 117 9 200 5 114 -6 136 -10 185 -35 84 -43 172 -111
263 -206 167 -175 504 -462 683 -583 107 -72 154 -118 189 -190 46 -91 45
-143 -10 -357 l-48 -186 17 -60 c23 -84 75 -161 164 -246 l77 -73 -60 8 c-33
4 -96 8 -140 8 -94 0 -143 -20 -217 -89 -43 -40 -48 -48 -48 -88 0 -26 17 -97
40 -166 42 -126 47 -152 30 -152 -17 0 -68 28 -175 98 -204 133 -290 156 -400
107 -126 -56 -371 -135 -421 -135 -7 0 -41 24 -74 54 -34 30 -80 64 -103 75
-62 30 -367 84 -447 79 -97 -6 -128 -26 -241 -157 -119 -137 -196 -205 -258
-226 -25 -8 -85 -21 -134 -27 -84 -11 -90 -11 -103 7 -22 30 -17 44 35 101 27
29 51 65 55 79 10 40 -20 90 -77 129 -53 35 -146 126 -164 161 -6 11 -14 136
-18 283 l-7 262 41 55 c56 73 61 91 61 199 0 100 24 216 59 283 30 59 78 98
172 141 112 52 129 73 129 166 0 89 -26 301 -46 380 -16 61 -68 172 -134 286
-60 103 -100 186 -100 206 0 11 32 69 71 129 159 249 207 407 163 543 l-16 50
41 94 c23 52 48 104 57 116 l15 21 77 -35 c42 -19 104 -51 137 -71z m4512
-739 c31 -20 81 -54 111 -76 63 -47 124 -65 237 -73 142 -10 163 -15 212 -49
108 -74 67 -69 590 -70 259 -1 474 -4 478 -7 3 -4 -4 -67 -16 -140 -30 -177
-32 -396 -5 -484 22 -75 67 -149 145 -243 l61 -72 -31 -82 c-17 -44 -85 -188
-151 -319 -66 -130 -126 -261 -134 -291 -7 -29 -14 -93 -14 -141 0 -177 62
-393 247 -865 63 -161 113 -298 110 -305 -6 -16 -816 -1379 -829 -1394 -8 -10
-65 -13 -223 -13 -179 0 -215 -2 -225 -15 -10 -12 -12 -76 -7 -295 l6 -280
-618 0 -618 0 -7 160 c-4 89 -5 252 -1 363 6 189 4 224 -29 532 -65 607 -64
586 -14 799 26 111 37 139 97 234 72 115 85 157 78 250 -6 85 -46 209 -74 229
-23 18 -75 16 -144 -3 -32 -9 -65 -14 -72 -11 -8 3 -35 48 -61 100 -67 138
-134 194 -291 242 l-70 22 -3 59 c-9 231 -46 742 -57 804 -7 41 -21 119 -31
173 -21 115 -26 107 102 191 96 63 105 83 105 236 l-1 105 68 60 c186 166 308
317 354 438 11 28 24 58 30 65 22 26 235 151 278 162 83 22 194 38 278 39 79
1 86 -1 139 -35z m4697 -798 c42 -17 124 -100 176 -175 47 -70 86 -104 181
-157 l70 -39 -3 -140 -4 -140 -62 -123 c-109 -213 -142 -352 -142 -589 l0 -99
-66 -64 c-75 -75 -104 -123 -104 -177 0 -21 13 -105 30 -188 34 -174 38 -283
15 -475 -8 -69 -15 -168 -15 -221 0 -83 -3 -101 -23 -130 -24 -36 -78 -77
-145 -109 -28 -13 -48 -32 -57 -53 -14 -30 -56 -387 -71 -600 -7 -94 -8 -98
-28 -92 -12 3 -45 13 -74 21 -29 8 -124 42 -213 75 -154 58 -164 63 -254 139
-91 76 -105 84 -212 110 l-42 11 46 97 c72 150 70 236 -6 305 -22 20 -58 41
-79 48 -88 26 -190 -19 -231 -103 -29 -61 -27 -111 9 -185 16 -35 27 -63 25
-63 -3 0 -28 14 -56 32 -46 28 -56 41 -97 126 -44 92 -47 95 -99 118 -29 13
-62 24 -72 24 -12 0 -26 18 -42 53 -14 30 -58 88 -106 139 -125 133 -138 193
-137 643 0 293 11 458 34 546 14 52 69 104 211 200 140 94 218 169 300 285 30
43 87 124 126 179 92 129 227 350 270 442 32 66 34 78 31 152 -4 94 -14 85
122 101 126 14 258 37 350 60 102 25 115 27 273 29 97 1 147 -3 171 -13z
m-7042 -1528 c146 -19 226 -22 513 -23 353 -1 391 -4 585 -52 81 -19 167 -62
201 -100 15 -15 45 -67 68 -114 42 -89 95 -149 131 -149 11 0 53 9 92 20 84
23 81 26 104 -78 23 -103 16 -135 -55 -253 -73 -120 -104 -206 -131 -365 -28
-165 -29 -149 39 -794 17 -162 21 -293 27 -1067 6 -752 5 -883 -7 -887 -13 -4
-1062 -55 -1066 -52 -1 1 11 55 27 121 48 203 62 287 58 335 -4 40 -82 316
-158 556 -16 51 -56 151 -89 224 -70 153 -93 222 -85 259 3 14 21 74 40 133
63 199 48 265 -107 463 -148 190 -157 212 -238 575 -17 74 -49 200 -71 280
-22 80 -63 255 -90 390 -28 137 -69 302 -92 374 l-43 128 44 39 c38 34 81 55
118 58 6 1 89 -9 185 -21z m-1766 -229 c92 -17 180 -37 195 -44 15 -8 51 -36
80 -63 67 -61 88 -72 134 -72 70 0 284 64 439 132 101 44 141 32 360 -111 92
-60 196 -111 225 -111 4 0 24 -78 44 -173 20 -95 55 -239 77 -320 22 -81 61
-239 86 -350 69 -304 90 -352 236 -534 43 -54 90 -122 105 -151 32 -66 29
-111 -21 -270 -52 -166 -51 -173 54 -407 73 -162 73 -161 180 -523 59 -199 71
-251 66 -284 -12 -76 -88 -393 -96 -401 -4 -5 -273 -16 -597 -25 -466 -13
-593 -20 -606 -31 -16 -12 -17 -76 -17 -733 l0 -720 -47 7 c-35 5 -59 17 -93
47 -64 57 -80 61 -182 47 -47 -6 -93 -9 -101 -6 -8 3 -18 18 -21 33 -16 63
-58 135 -87 150 -28 14 -46 13 -211 -6 -99 -12 -194 -18 -212 -14 -52 11 -73
40 -112 158 -57 174 -69 189 -271 349 -82 65 -148 151 -193 253 -36 79 -60
108 -112 135 -37 19 -38 21 -38 77 0 44 8 75 37 137 49 108 52 153 18 257 -39
117 -89 213 -141 268 l-44 47 40 53 c45 60 60 103 60 173 0 39 14 78 76 209
78 163 76 159 125 416 8 38 21 65 49 97 60 70 64 90 65 370 1 138 3 321 5 408
2 150 1 159 -19 181 -27 29 -101 66 -132 66 -34 0 -43 9 -72 65 l-26 50 20 80
c41 162 8 302 -88 382 l-50 42 -26 118 c-14 65 -28 125 -32 135 -5 13 2 17 37
22 67 11 140 28 174 42 63 26 157 110 260 230 140 164 134 162 400 113z m6708
-398 c87 -91 -37 -226 -133 -145 -38 32 -49 80 -27 122 20 40 41 51 92 52 32
0 46 -6 68 -29z m1017 -711 c24 -13 49 -61 49 -96 0 -35 -59 -94 -94 -94 -15
0 -40 7 -56 15 -88 46 -56 185 43 185 21 0 47 -5 58 -10z m-497 -54 c29 -12
41 -28 73 -98 46 -98 68 -118 202 -189 85 -46 101 -58 117 -93 23 -49 55 -58
89 -26 23 22 24 22 98 5 69 -17 81 -24 165 -96 86 -74 98 -81 234 -133 78 -29
170 -62 203 -72 33 -10 62 -19 64 -21 2 -1 -10 -18 -27 -38 -36 -40 -56 -105
-49 -151 7 -42 143 -333 167 -358 16 -16 23 -18 43 -9 24 11 24 10 31 -48 6
-65 25 -110 62 -150 23 -25 24 -27 9 -62 -28 -67 -20 -101 63 -277 93 -199 88
-190 117 -190 31 0 38 11 120 187 38 81 70 150 72 152 1 2 37 -28 80 -66 43
-39 112 -96 153 -127 51 -40 85 -75 108 -113 18 -31 44 -71 58 -89 30 -39 33
-32 -71 -184 -57 -84 -76 -122 -93 -186 -12 -44 -22 -89 -23 -100 0 -10 -6 1
-14 25 -16 51 -66 107 -112 127 -74 32 -173 8 -226 -55 -57 -68 -60 -145 -8
-250 17 -36 31 -68 31 -72 0 -4 -14 -10 -31 -14 -41 -9 -98 -61 -120 -110 -33
-72 -26 -104 62 -292 83 -175 98 -195 136 -174 10 5 54 85 97 177 77 167 78
169 72 229 -4 33 -7 69 -7 80 -1 11 23 70 52 130 l54 110 6 -59 c8 -67 33
-100 95 -120 35 -12 43 -22 80 -95 78 -155 132 -185 257 -142 32 11 57 19 57
18 6 -23 17 -434 13 -462 -4 -25 -29 -73 -71 -135 -36 -52 -91 -143 -123 -203
-67 -123 -109 -188 -109 -167 0 37 -45 104 -88 131 -38 24 -57 29 -109 29
l-63 0 30 60 c67 132 15 264 -119 300 -120 32 -242 -65 -241 -191 1 -57 144
-369 177 -384 12 -5 28 -25 36 -45 8 -19 29 -67 47 -105 l32 -71 -56 -81 c-67
-97 -99 -164 -121 -254 -31 -123 -42 -135 -202 -215 -303 -151 -654 -295 -798
-328 -308 -70 -958 -210 -1080 -233 -143 -27 -164 -28 -450 -28 l-300 0 -130
36 c-71 21 -143 40 -160 44 -18 4 -57 32 -95 70 -106 104 -206 140 -322 116
-115 -24 -129 -89 -60 -271 80 -212 116 -278 192 -351 l70 -67 0 -57 c0 -63
-3 -67 -100 -138 -26 -19 -57 -54 -73 -84 -33 -62 -67 -189 -67 -252 0 -33
-10 -66 -35 -116 -26 -51 -39 -96 -50 -167 -21 -143 -11 -186 66 -274 22 -26
50 -67 62 -90 18 -38 19 -48 8 -84 -18 -60 -72 -91 -227 -128 l-126 -31 -47
47 c-25 26 -95 83 -156 127 -173 123 -168 118 -160 195 3 36 15 119 25 185 23
140 25 281 10 735 -6 168 -17 1286 -26 2485 -8 1199 -18 2246 -21 2328 l-6
147 620 0 c442 0 630 3 654 12 58 19 85 45 186 176 268 349 404 520 420 527
42 16 151 16 223 1 203 -43 269 -5 300 174 23 137 18 130 74 106z m1376 -886
l0 -100 -29 0 c-59 0 -102 92 -71 150 12 22 57 49 83 50 15 0 17 -11 17 -100z
m295 -680 c105 -22 98 -17 92 -57 -12 -72 -84 -111 -145 -79 -38 20 -54 47
-54 92 0 40 18 66 41 60 9 -3 39 -10 66 -16z m-4225 -167 c0 -256 19 -2957 24
-3435 4 -300 2 -458 -5 -458 -24 0 -294 144 -394 210 -245 161 -415 219 -695
235 -277 15 -1017 82 -1161 105 -31 5 -79 20 -105 33 -48 25 -158 132 -276
269 -57 66 -138 118 -183 118 -11 0 -74 -13 -140 -30 -100 -25 -125 -28 -158
-19 -52 14 -122 80 -143 135 -16 42 -16 51 0 163 30 214 24 221 -249 317
l-150 52 -3 690 -2 690 82 6 c46 3 331 12 633 21 303 8 777 26 1055 40 278 14
526 25 552 25 83 0 78 -30 78 506 l0 474 620 0 620 0 0 -147z m4471 -746 c70
-47 57 -145 -22 -175 -112 -42 -188 116 -85 179 41 25 66 24 107 -4z m-109
-423 c11 -26 28 -49 39 -51 23 -6 24 -15 4 -53 -30 -59 -107 -71 -155 -25 -50
48 -44 121 14 156 52 32 74 26 98 -27z m-9745 -76 c11 -13 26 -40 33 -61 17
-53 119 -206 166 -247 22 -19 84 -71 138 -115 109 -89 119 -104 165 -250 39
-121 67 -166 117 -190 58 -27 110 -29 283 -10 87 10 165 16 173 12 8 -3 27
-40 43 -82 37 -102 49 -110 168 -102 51 3 99 8 107 11 9 4 35 -11 68 -40 46
-40 61 -47 125 -58 l72 -12 17 -160 c28 -259 67 -736 74 -914 8 -199 9 -196
-102 -290 -91 -76 -119 -113 -128 -170 -14 -88 -33 -117 -130 -189 -50 -38
-122 -89 -161 -114 -38 -25 -164 -124 -280 -221 -115 -96 -235 -189 -265 -205
-169 -91 -189 -134 -155 -330 32 -181 -20 -226 -320 -276 -185 -31 -212 -38
-261 -75 -94 -69 -165 -195 -184 -325 -15 -103 -38 -194 -56 -222 -18 -29 -60
-30 -162 -6 -58 13 -86 15 -143 7 l-72 -10 -20 45 c-19 44 -19 46 -1 175 20
138 25 359 11 461 -8 59 -7 62 37 148 61 117 61 148 1 241 -37 56 -45 78 -45
115 0 46 1 46 50 69 76 35 88 67 106 271 20 229 33 328 47 362 7 15 74 91 149
169 76 77 145 155 154 172 27 52 15 156 -28 253 -48 107 -77 204 -89 299 -12
98 -22 116 -104 196 -37 35 -70 71 -75 80 -23 43 -30 227 -26 679 3 447 5 474
23 499 10 14 26 29 34 33 192 104 242 147 254 220 10 62 19 74 78 112 29 19
58 41 66 50 18 22 23 21 48 -5z m9847 -589 c33 -15 59 -71 51 -109 -4 -16 -20
-41 -37 -55 -41 -34 -88 -33 -129 3 -26 24 -32 36 -32 72 0 76 75 121 147 89z
m214 -374 c74 -62 33 -175 -63 -175 -65 0 -113 59 -100 121 9 40 59 79 100 79
21 0 44 -9 63 -25z m-8172 -246 c64 -22 131 -47 147 -56 l30 -15 -7 -76 c-20
-231 -20 -225 4 -279 26 -61 109 -145 172 -173 58 -26 117 -25 219 5 145 42
178 32 272 -83 129 -157 260 -267 352 -294 60 -17 798 -89 1160 -113 335 -22
443 -52 663 -188 l84 -52 -6 -45 c-3 -25 -6 -196 -6 -380 l-1 -335 45 -273 44
-272 199 -312 c109 -171 199 -315 201 -319 11 -27 -214 -12 -295 20 -26 10
-88 37 -138 59 -49 22 -153 61 -230 87 -161 55 -217 81 -294 139 -54 40 -56
41 -135 40 -92 -1 -228 -34 -279 -68 -31 -21 -32 -24 -35 -105 -2 -47 2 -98 9
-115 6 -17 15 -70 19 -118 7 -75 14 -98 49 -163 l41 -76 -7 -254 c-3 -140 -8
-255 -9 -255 -6 0 -3788 -209 -4156 -230 -424 -24 -468 -24 -468 -7 0 6 -29
69 -64 139 -35 70 -69 150 -75 178 -6 28 -11 127 -11 220 l0 169 28 15 27 15
-32 1 c-23 0 -33 5 -33 15 0 8 -1 18 -2 23 -6 17 109 18 182 0 90 -21 120 -22
164 -4 66 28 107 113 132 279 19 127 54 204 126 274 l53 52 150 26 c83 14 176
32 207 40 155 39 248 132 248 248 0 15 -7 73 -17 128 -19 119 -14 136 54 175
108 61 152 94 341 251 108 91 240 194 292 229 143 96 232 167 258 204 21 32
29 54 52 147 9 36 24 53 95 113 135 113 130 100 129 335 0 110 -6 265 -13 345
-19 236 -60 673 -66 703 -2 15 -1 27 4 27 5 0 62 -18 127 -41z m3357 -1470
l164 -80 6 -157 c4 -86 10 -265 13 -397 6 -226 4 -250 -20 -408 -35 -228 -35
-266 5 -312 18 -20 84 -73 148 -119 109 -79 190 -151 180 -160 -20 -17 -172
-106 -182 -106 -21 0 -28 11 -227 325 l-184 290 -43 270 c-40 253 -43 283 -43
475 0 185 9 460 16 460 1 0 76 -36 167 -81z m-1038 -2729 c31 -44 93 -98 143
-124 27 -14 145 -45 174 -46 3 0 16 -28 27 -62 44 -132 73 -154 186 -144 142
13 225 52 225 106 0 10 -16 41 -35 69 -22 34 -30 53 -22 56 7 2 41 12 77 21
52 14 76 28 117 67 l52 49 14 -29 c11 -21 16 -94 21 -296 l7 -269 -22 -5 c-12
-4 -57 -24 -98 -45 -71 -35 -82 -38 -162 -38 l-86 0 -20 105 c-25 126 -39 150
-95 165 -45 13 -210 5 -264 -11 -35 -11 -98 -72 -112 -110 -12 -31 -27 -136
-23 -164 4 -32 44 -61 118 -85 70 -23 176 -74 226 -108 l28 -19 -88 -28 c-272
-84 -447 -260 -530 -532 -23 -77 -27 -105 -27 -228 0 -119 5 -165 33 -308 18
-93 30 -175 27 -182 -3 -8 -29 -16 -63 -20 -76 -10 -121 -29 -132 -57 -20 -48
-81 -388 -81 -452 l0 -66 -55 0 c-32 0 -69 7 -87 16 -43 22 -129 15 -198 -18
-30 -14 -109 -66 -175 -115 -111 -84 -125 -91 -190 -103 -118 -21 -117 -20
-263 -243 -73 -111 -169 -254 -213 -317 -43 -63 -87 -136 -97 -162 -20 -57 6
-51 -312 -78 -129 -11 -469 -40 -755 -65 -909 -80 -1539 -134 -1580 -137 l-40
-3 -12 70 c-24 139 -10 263 41 363 14 26 51 71 85 100 72 63 82 94 56 174 -59
180 -135 252 -348 334 -60 23 -105 44 -101 46 43 25 127 40 236 42 135 2 173
13 222 62 49 49 75 120 82 220 9 153 -7 163 -259 163 -93 1 -176 5 -186 11
-10 5 -24 23 -30 39 -11 26 -9 36 18 92 17 35 31 73 31 85 0 12 11 42 25 65
16 29 25 60 25 89 0 41 -4 48 -54 95 l-54 50 23 55 c44 101 30 153 -59 220
-30 23 -61 52 -70 64 -14 22 -13 25 39 70 46 39 55 53 66 100 15 69 6 119 -28
146 -22 17 -40 20 -120 20 -75 0 -102 4 -134 21 -31 15 -39 24 -34 37 27 71
28 98 7 169 -13 42 -29 142 -39 245 -16 165 -16 178 0 220 22 57 97 150 167
206 30 24 64 61 75 82 23 46 0 42 445 66 168 9 1171 64 2230 124 1059 59 1937
108 1951 109 20 1 33 -9 54 -39z m-1690 -3957 c-5 -60 -2 -99 14 -170 30 -139
70 -204 172 -279 37 -27 75 -75 154 -193 116 -176 194 -258 272 -287 40 -14
92 -19 308 -23 245 -6 262 -7 290 -27 48 -35 135 -131 135 -151 0 -9 -18 -51
-39 -93 -23 -44 -53 -126 -72 -200 l-32 -126 26 -54 c14 -30 35 -69 46 -86
l21 -30 -102 -90 c-61 -53 -127 -123 -165 -174 -110 -150 -156 -194 -316 -302
-110 -73 -177 -127 -240 -192 -153 -157 -268 -296 -298 -360 -46 -100 -67
-252 -78 -574 l-9 -283 -34 -56 c-61 -103 -110 -142 -307 -243 -125 -64 -191
-104 -214 -129 -42 -46 -139 -237 -202 -396 -69 -173 -71 -219 -14 -367 l44
-113 1 -225 c0 -124 1 -230 2 -235 1 -6 42 -64 91 -128 49 -65 124 -182 166
-260 43 -78 95 -168 117 -200 l38 -57 -87 43 c-115 58 -370 160 -469 189 -76
22 -92 23 -464 23 -376 0 -663 -16 -852 -46 -85 -14 -114 0 -184 84 -44 54
-59 65 -115 84 -50 17 -73 32 -107 70 -48 53 -48 57 -12 158 22 59 22 61 5
200 -9 77 -25 185 -36 240 -12 55 -24 161 -29 235 -8 149 -16 177 -55 208 -93
73 -205 46 -392 -95 -105 -79 -109 -77 -154 81 -54 188 -66 213 -131 283 -32
35 -63 75 -69 91 -31 81 -61 247 -79 442 -11 118 -24 239 -29 268 l-8 53 91
61 c168 113 189 136 226 242 15 44 36 73 105 143 118 121 125 138 125 302 l0
134 54 52 c32 30 58 64 61 81 3 16 8 39 11 50 6 34 -15 129 -46 202 -15 37
-35 104 -45 149 -15 79 -15 88 4 218 25 163 52 229 136 325 31 36 68 84 82
108 27 46 27 37 7 279 -5 61 -2 87 25 181 38 133 61 280 61 387 -1 44 -11 157
-23 252 l-23 172 46 6 c25 3 358 32 740 65 382 34 938 82 1235 109 297 27 559
49 583 50 l43 1 -6 -77z"/>
<path d="M7670 25275 c-19 -9 -48 -28 -63 -43 -34 -33 -61 -119 -52 -165 4
-17 42 -105 84 -195 109 -233 114 -232 230 18 83 176 91 222 52 298 -43 84
-163 126 -251 87z m153 -115 c37 -41 37 -89 -1 -131 -61 -68 -172 -23 -172 69
1 94 109 133 173 62z"/>
<path d="M11885 21767 c-68 -31 -124 -131 -112 -202 8 -46 153 -348 175 -363
10 -7 27 -9 37 -6 10 4 51 76 97 173 67 140 80 174 80 218 1 63 -24 116 -76
157 -32 26 -47 31 -104 33 -41 2 -79 -2 -97 -10z m135 -94 c88 -52 52 -183
-50 -183 -106 0 -139 137 -45 188 29 16 63 14 95 -5z"/>
<path d="M11825 20811 c-96 -24 -167 -127 -150 -218 3 -18 41 -107 84 -197 79
-164 96 -186 133 -165 8 4 50 84 93 176 68 143 79 175 79 218 -1 73 -44 140
-109 173 -30 15 -96 21 -130 13z m114 -120 c43 -40 44 -100 2 -142 -65 -64
-171 -20 -171 71 0 91 102 134 169 71z"/>
<path d="M11068 20090 c-72 -38 -117 -133 -99 -210 10 -42 138 -318 159 -342
8 -10 23 -18 32 -18 9 0 24 8 33 18 20 22 153 309 161 349 9 41 -10 110 -41
151 -52 69 -166 93 -245 52z m142 -87 c56 -33 66 -104 22 -154 -24 -26 -36
-32 -72 -32 -36 0 -48 6 -72 32 -34 39 -37 87 -7 125 37 47 83 57 129 29z"/>
<path d="M11715 20096 c-69 -30 -122 -123 -112 -200 5 -48 148 -352 174 -372
16 -12 15 -13 -11 -14 -77 -1 -156 -85 -164 -175 -4 -51 0 -64 74 -221 80
-170 106 -205 140 -186 10 5 53 86 97 178 74 160 79 172 75 226 -7 95 -83 178
-164 178 -26 0 -26 0 -6 18 12 9 56 91 98 182 72 155 76 167 72 221 -5 72 -43
130 -102 159 -49 23 -126 26 -171 6z m152 -109 c33 -33 39 -84 14 -123 -43
-69 -140 -63 -175 10 -48 101 82 192 161 113z m-9 -592 c36 -30 47 -66 32
-110 -22 -66 -103 -86 -158 -40 -35 30 -45 69 -27 111 27 66 100 84 153 39z"/>
<path d="M10675 19894 c-71 -39 -105 -96 -105 -176 0 -44 12 -77 77 -216 76
-161 96 -189 131 -177 26 8 174 325 179 384 5 58 -26 122 -80 165 -32 26 -48
31 -105 33 -48 2 -76 -1 -97 -13z m135 -89 c37 -19 50 -43 50 -91 0 -55 -40
-94 -96 -94 -58 0 -93 31 -101 87 -5 39 -2 46 30 78 39 39 70 44 117 20z"/>
<path d="M12435 19036 c-69 -30 -124 -129 -112 -202 9 -54 158 -363 178 -369
36 -12 57 16 132 179 65 138 77 172 77 216 0 113 -79 190 -192 190 -29 -1 -67
-7 -83 -14z m152 -111 c32 -32 35 -39 30 -78 -16 -122 -197 -116 -197 7 0 47
13 72 48 90 46 25 80 20 119 -19z"/>
<path d="M12030 18750 c-48 -9 -72 -23 -108 -64 -35 -40 -56 -106 -49 -151 8
-47 153 -348 176 -363 14 -10 25 -11 39 -3 10 5 53 82 96 175 81 173 93 221
68 287 -32 84 -130 137 -222 119z m89 -105 c58 -29 66 -124 14 -165 -64 -50
-163 -4 -163 77 0 82 75 127 149 88z"/>
<path d="M11375 18555 c-5 -2 -22 -6 -38 -9 -72 -16 -145 -127 -134 -203 7
-51 149 -354 173 -369 39 -25 57 -2 138 172 75 163 78 171 74 231 -3 51 -9 69
-34 99 -17 21 -46 45 -65 55 -35 18 -96 31 -114 24z m74 -109 c45 -24 63 -83
40 -129 -49 -96 -189 -64 -189 43 0 79 76 123 149 86z"/>
<path d="M9096 18246 c-78 -29 -126 -99 -126 -184 0 -42 13 -78 79 -219 74
-157 82 -168 109 -171 16 -2 33 3 39 10 6 7 44 83 84 168 67 141 74 161 74
217 0 52 -5 68 -30 104 -52 73 -148 105 -229 75z m135 -115 c62 -63 20 -171
-66 -171 -46 0 -105 53 -105 95 0 92 107 140 171 76z"/>
<path d="M12757 21850 c-81 -24 -143 -116 -135 -198 5 -42 131 -333 160 -369
14 -18 53 -16 68 2 7 8 46 85 86 171 61 128 74 165 74 205 0 133 -126 227
-253 189z m119 -108 c54 -43 58 -100 10 -148 -56 -56 -131 -42 -161 30 -18 42
-8 81 27 111 35 30 92 33 124 7z"/>
<path d="M5406 3887 c-13 -19 -7 -157 46 -1142 46 -856 64 -1125 75 -1142 l13
-23 499 0 498 0 53 -61 c66 -76 124 -119 161 -119 44 0 194 75 246 123 60 56
107 71 212 71 76 0 85 -2 104 -25 l20 -24 -5 28 c-3 15 -2 27 3 27 14 0 206
159 223 185 9 14 19 40 23 58 3 17 17 51 31 75 20 36 23 47 14 67 -20 43 -77
44 -212 5 -36 -10 -107 -21 -158 -25 l-93 -6 -106 48 c-106 47 -107 47 -262
204 -179 179 -237 221 -479 342 -183 92 -186 95 -293 272 -29 49 -79 115 -111
146 -50 49 -59 65 -74 123 -22 88 -46 122 -122 172 l-62 41 -3 154 c-2 150 -3
156 -34 219 -38 78 -139 210 -170 221 -18 7 -26 4 -37 -14z m125 -249 c22 -49
24 -66 24 -210 0 -181 -5 -167 105 -240 l64 -43 21 -83 c21 -79 26 -88 92
-155 38 -40 91 -109 118 -155 99 -166 114 -180 297 -272 246 -124 310 -170
488 -349 l155 -157 119 -53 118 -54 125 8 c80 4 145 13 180 26 31 10 57 19 59
19 4 0 -13 -67 -22 -83 -11 -19 -181 -157 -194 -157 -5 0 -20 5 -34 11 -19 9
-41 9 -88 0 -128 -24 -162 -38 -209 -85 -28 -28 -73 -58 -121 -80 l-77 -35
-30 25 c-17 14 -53 54 -81 89 l-52 65 -489 0 c-383 0 -490 3 -493 13 -3 6 -27
446 -55 977 -28 531 -53 980 -54 998 -4 46 7 40 34 -20z"/>
</g>
</svg>
